 
http://www.imdb.com/title/tt1308729/


[b]Plot: After watching their respective partners die, a New Orleans hitman and a Washington D.C. detective form an alliance in order to bring down their common enemy. 



Director:
 Walter Hill

Writers:
 Alessandro Camon ,Alexis Nolent

Stars:
 Sylvester Stallone, Jason Momoa, Christian Slater

Genres:
 Action | Crime | Thriller 

Country:
USA

Language:
English

Thanks: MATiNE[/b]


Format                                   : AVI
Format/Info                              : Audio Video Interleave
File size                                : 694 MiB
Duration                                 : 1h 26mn
Overall bit rate                         : 1 126 Kbps
Writing application                      : Lavf54.59.103

Video
ID                                       : 0
Format                                   : MPEG-4 Visual
Format profile                           : Simple@L3
Format settings, BVOP                    : No
Format settings, QPel                    : No
Format settings, GMC                     : No warppoints
Format settings, Matrix                  : Default (H.263)
Codec ID                                 : XVID
Codec ID/Hint                            : XviD
Duration                                 : 1h 26mn
Bit rate                                 : 1 050 Kbps
Width                                    : 640 pixels
Height                                   : 320 pixels
Display aspect ratio                     : 2.000
Frame rate                               : 29.970 fps
Color space                              : YUV
Chroma subsampling                       : 4:2:0
Bit depth                                : 8 bits
Scan type                                : Progressive
Compression mode                         : Lossy
Bits/(Pixel*Frame)                       : 0.171
Stream size                              : 647 MiB (93%)
Writing library                          : XviD 64

Audio
ID                                       : 1
Format                                   : AC-3
Format/Info                              : Audio Coding 3
Mode extension                           : CM (complete main)
Format settings, Endianness              : Big
Codec ID                                 : 2000
Duration                                 : 1h 26mn
Bit rate mode                            : Constant
Bit rate                                 : 64.0 Kbps
Channel(s)                               : 1 channel
Channel positions                        : Front: C
Sampling rate                            : 48.0 KHz
Bit depth                                : 16 bits
Compression mode                         : Lossy
Stream size                              : 39.4 MiB (6%)
Alignment                                : Aligned on interleaves
Interleave, duration                     : 32 ms (0.96 video frame)


 
http://bayimg.com/dajHBAael 
http://bayimg.com/DAjhcAAEL 
http://bayimg.com/DajHdAaEl